<mxfile host="Electron" agent="Mozilla/5.0 (Windows NT 10.0; Win64; x64) AppleWebKit/537.36 (KHTML, like Gecko) draw.io/28.0.6 Chrome/138.0.7204.100 Electron/37.2.3 Safari/537.36" version="28.0.6">
  <diagram name="Página-1" id="H9GQ8LUU7EfDbo7DXz3q">
    <mxGraphModel dx="1213" dy="828" grid="1" gridSize="10" guides="1" tooltips="1" connect="1" arrows="1" fold="1" page="1" pageScale="1" pageWidth="827" pageHeight="1169" math="0" shadow="0">
      <root>
        <mxCell id="0" />
        <mxCell id="1" parent="0" />
        <mxCell id="hA5ZmaxmRAf9yu5zs-At-5" style="rounded=0;orthogonalLoop=1;jettySize=auto;html=1;exitX=0.5;exitY=1;exitDx=0;exitDy=0;entryX=0.5;entryY=0;entryDx=0;entryDy=0;" edge="1" parent="1" source="hA5ZmaxmRAf9yu5zs-At-1" target="hA5ZmaxmRAf9yu5zs-At-2">
          <mxGeometry relative="1" as="geometry" />
        </mxCell>
        <mxCell id="hA5ZmaxmRAf9yu5zs-At-6" style="rounded=0;orthogonalLoop=1;jettySize=auto;html=1;exitX=0.5;exitY=1;exitDx=0;exitDy=0;entryX=0.5;entryY=0;entryDx=0;entryDy=0;" edge="1" parent="1" source="hA5ZmaxmRAf9yu5zs-At-1" target="hA5ZmaxmRAf9yu5zs-At-3">
          <mxGeometry relative="1" as="geometry" />
        </mxCell>
        <mxCell id="hA5ZmaxmRAf9yu5zs-At-7" style="rounded=0;orthogonalLoop=1;jettySize=auto;html=1;exitX=0.5;exitY=1;exitDx=0;exitDy=0;entryX=0.5;entryY=0;entryDx=0;entryDy=0;" edge="1" parent="1" source="hA5ZmaxmRAf9yu5zs-At-1" target="hA5ZmaxmRAf9yu5zs-At-4">
          <mxGeometry relative="1" as="geometry" />
        </mxCell>
        <mxCell id="hA5ZmaxmRAf9yu5zs-At-9" style="rounded=0;orthogonalLoop=1;jettySize=auto;html=1;exitX=0;exitY=0.5;exitDx=0;exitDy=0;entryX=1;entryY=0.5;entryDx=0;entryDy=0;" edge="1" parent="1" source="hA5ZmaxmRAf9yu5zs-At-1" target="hA5ZmaxmRAf9yu5zs-At-8">
          <mxGeometry relative="1" as="geometry" />
        </mxCell>
        <mxCell id="hA5ZmaxmRAf9yu5zs-At-1" value="Servidor" style="ellipse;whiteSpace=wrap;html=1;aspect=fixed;" vertex="1" parent="1">
          <mxGeometry x="370" y="10" width="80" height="80" as="geometry" />
        </mxCell>
        <mxCell id="hA5ZmaxmRAf9yu5zs-At-2" value="Cliente" style="ellipse;whiteSpace=wrap;html=1;aspect=fixed;" vertex="1" parent="1">
          <mxGeometry x="120" y="280" width="80" height="80" as="geometry" />
        </mxCell>
        <mxCell id="hA5ZmaxmRAf9yu5zs-At-3" value="Cliente" style="ellipse;whiteSpace=wrap;html=1;aspect=fixed;" vertex="1" parent="1">
          <mxGeometry x="370" y="280" width="80" height="80" as="geometry" />
        </mxCell>
        <mxCell id="hA5ZmaxmRAf9yu5zs-At-4" value="Cliente" style="ellipse;whiteSpace=wrap;html=1;aspect=fixed;" vertex="1" parent="1">
          <mxGeometry x="610" y="280" width="80" height="80" as="geometry" />
        </mxCell>
        <mxCell id="hA5ZmaxmRAf9yu5zs-At-8" value="Reloj lógico&lt;div&gt;Atomico&lt;/div&gt;" style="ellipse;whiteSpace=wrap;html=1;aspect=fixed;" vertex="1" parent="1">
          <mxGeometry x="90" width="80" height="80" as="geometry" />
        </mxCell>
      </root>
    </mxGraphModel>
  </diagram>
</mxfile>
